<svg viewBox="0 0 256 256" xmlns="http://www.w3.org/2000/svg" role="img" aria-label="go-ruby-json">
  <defs><linearGradient id="ruby" x1="0" y1="0" x2="1" y2="1"><stop offset="0" stop-color="#DC2626"/><stop offset="1" stop-color="#7F1D1D"/></linearGradient></defs>
  <rect width="256" height="256" rx="56" fill="url(#ruby)"/>
  <g fill="none" stroke="#FFFFFF" stroke-width="15" stroke-linecap="round" stroke-linejoin="round">
    <path d="M96 64c-22 0-22 18-22 32 0 14 0 24-18 32 18 8 18 18 18 32 0 14 0 32 22 32"/>
    <path d="M160 64c22 0 22 18 22 32 0 14 0 24 18 32-18 8-18 18-18 32 0 14 0 32-22 32"/>
  </g>
  <circle cx="128" cy="112" r="11" fill="#FFFFFF"/>
  <circle cx="128" cy="160" r="11" fill="#FFFFFF"/>
</svg>
